name analog
datacolumns 19
datarows 46
range 0.178 0.2005
endheader
time	ground_force_vx	ground_force_vy	ground_force_vz	ground_force_px	ground_force_py	ground_force_pz	l_ground_force_vx	l_ground_force_vy	l_ground_force_vz	l_ground_force_px	l_ground_force_py	l_ground_force_pz	ground_torque_x	ground_torque_y	ground_torque_z	l_ground_torque_x	l_ground_torque_y	l_ground_torque_z
0.178	-0.0	-0.0	-0.0	3.9083733558654794	24.383220672607425	-394.7120056152344	-2.7141499519348145	-24.78465843200684	-333.5810546875	-0.0	-0.0	-0.0	-0.0	-0.0	-0.0	100818.8984375	526.1686401367188	-3259.939453125
0.1785	-0.0	-0.0	-0.0	4.123071670532227	24.31322860717773	-393.2991333007813	-2.306480407714844	-24.44613265991211	-333.15704345703125	-0.0	-0.0	-0.0	-0.0	-0.0	-0.0	100974.5234375	342.1706848144531	-3193.9140625
0.179	-0.0	-0.0	-0.0	3.9782345294952393	24.26295661926269	-396.5548095703125	-2.4479403495788574	-24.605945587158203	-333.2982788085937	-0.0	-0.0	-0.0	-0.0	-0.0	-0.0	101033.75	241.7232208251953	-3194.068359375
0.1795	-0.0	-0.0	-0.0	4.139947891235352	24.27970123291016	-394.0712890625	-2.6111154556274414	-24.694242477416992	-334.2896728515625	-0.0	-0.0	-0.0	-0.0	-0.0	-0.0	101012.6171875	335.1073303222656	-3194.215576171875
0.18	-0.0	-0.0	-0.0	3.855750799179077	24.27973937988281	-394.1488037109375	-2.425800323486328	-24.995037078857425	-333.6578063964844	-0.0	-0.0	-0.0	-0.0	-0.0	-0.0	101173.28125	415.9903259277344	-3276.688720703125
0.1805	-0.0	-0.0	-0.0	4.12021017074585	24.52737236022949	-393.5079040527344	-2.64184045791626	-24.64175033569336	-335.2508544921875	-0.0	-0.0	-0.0	-0.0	-0.0	-0.0	101115.7109375	464.5238342285156	-3211.854248046875
0.181	-0.0	-0.0	-0.0	4.030956268310547	24.29966354370117	-393.08929443359375	-2.536526679992676	-24.890249252319336	-333.93096923828125	-0.0	-0.0	-0.0	-0.0	-0.0	-0.0	101272.8671875	295.56591796875	-3205.305908203125
0.1815	-0.0	-0.0	-0.0	3.961664915084839	24.101577758789062	-393.08929443359375	-2.6219964027404785	-24.71687126159668	-335.1081848144531	-0.0	-0.0	-0.0	-0.0	-0.0	-0.0	101581.921875	405.5098876953125	-3234.947998046875
0.182	-0.0	-0.0	-0.0	3.832266330718994	24.348913192749023	-395.0940551757813	-2.4839019775390625	-25.13567543029785	-334.06024169921875	-0.0	-0.0	-0.0	-0.0	-0.0	-0.0	101235.171875	425.8502197265625	-3170.1103515625
0.1825	-0.0	-0.0	-0.0	3.908986568450928	24.421730041503903	-394.5819396972656	-2.8550772666931152	-25.04732894897461	-334.9788513183594	-0.0	-0.0	-0.0	-0.0	-0.0	-0.0	101678.3203125	381.8787231445313	-3229.67138671875
0.183	-0.0	-0.0	-0.0	3.925262451171875	24.421730041503903	-395.0801086425781	-2.628813505172729	-24.99873924255371	-335.9478454589844	-0.0	-0.0	-0.0	-0.0	-0.0	-0.0	101598.1796875	474.17767333984375	-3222.806640625
0.1835	-0.0	-0.0	-0.0	3.8156275749206543	24.336898803710938	-394.1488037109375	-2.9313669204711914	-25.031145095825195	-334.9791564941406	-0.0	-0.0	-0.0	-0.0	-0.0	-0.0	101677.3671875	438.49853515625	-3271.487060546875
0.184	-0.0	-0.0	-0.0	4.293742656707764	24.35308265686035	-394.8551635742188	-2.6089046001434326	-25.063282012939453	-334.15399169921875	-0.0	-0.0	-0.0	-0.0	-0.0	-0.0	101495.4921875	398.06396484375	-3278.009033203125
0.1845	-0.0	-0.0	-0.0	3.7994425296783447	24.08580780029297	-395.25335693359375	-2.463621139526367	-24.995037078857425	-336.279541015625	-0.0	-0.0	-0.0	-0.0	-0.0	-0.0	101628.46875	636.7291870117188	-3330.473388671875
0.185	-0.0	-0.0	-0.0	3.840871810913086	24.25936889648437	-395.0632629394531	-2.451956987380981	-24.854602813720703	-334.5046691894531	-0.0	-0.0	-0.0	-0.0	-0.0	-0.0	101442.078125	425.2330627441406	-3187.4501953125
0.1855	-0.0	-0.0	-0.0	3.982769012451172	24.29595375061035	-396.0599365234375	-2.4839019775390625	-24.95423889160156	-335.2035827636719	-0.0	-0.0	-0.0	-0.0	-0.0	-0.0	101657.9375	566.8200073242188	-3265.828857421875
0.186	-0.0	-0.0	-0.0	3.699486255645752	24.510860443115234	-395.0630187988281	-2.368248224258423	-25.135406494140625	-335.6594543457031	-0.0	-0.0	-0.0	-0.0	-0.0	-0.0	101959.359375	625.3671875	-3283.296142578125
0.1865	-0.0	-0.0	-0.0	3.7782561779022217	24.421730041503903	-394.2731628417969	-2.5568459033966064	-25.155982971191406	-336.50067138671875	-0.0	-0.0	-0.0	-0.0	-0.0	-0.0	101848.7734375	549.7271118164062	-3281.796875
0.187	-0.0	-0.0	-0.0	3.789163112640381	24.79386711120605	-394.4400939941406	-2.8387451171875	-25.239273071289062	-335.247314453125	-0.0	-0.0	-0.0	-0.0	-0.0	-0.0	101677.21875	742.59326171875	-3318.593505859375
0.1875	-0.0	-0.0	-0.0	4.103683471679688	24.65799331665039	-394.832763671875	-2.692600727081299	-25.27557182312012	-334.95953369140625	-0.0	-0.0	-0.0	-0.0	-0.0	-0.0	101717.859375	654.7670288085938	-3301.043212890625
0.188	-0.0	-0.0	-0.0	3.709986448287964	24.295778274536133	-395.6460876464844	-2.8441970348358154	-25.2290153503418	-334.89764404296875	-0.0	-0.0	-0.0	-0.0	-0.0	-0.0	101664.8671875	619.2293090820312	-3337.830078125
0.1885	-0.0	-0.0	-0.0	3.531526565551758	24.53231239318848	-393.5885314941406	-2.75003433227539	-25.129608154296875	-335.32965087890625	-0.0	-0.0	-0.0	-0.0	-0.0	-0.0	101830.5625	651.4826049804688	-3400.394775390625
0.189	-0.0	-0.0	-0.0	3.857599973678589	25.01177215576172	-393.9173583984375	-2.499334812164306	-25.0468807220459	-335.3905029296875	-0.0	-0.0	-0.0	-0.0	-0.0	-0.0	101632.3203125	1007.9923706054688	-3384.67919921875
0.1895	-0.0	-0.0	-0.0	3.7557644844055176	24.473936080932617	-394.0630493164063	-2.4992575645446777	-24.885486602783203	-334.5476989746094	-0.0	-0.0	-0.0	-0.0	-0.0	-0.0	101629.984375	552.55029296875	-3318.206298828125
0.19	-0.0	-0.0	-0.0	3.8360519409179688	24.45869445800781	-393.8818664550781	-2.572612762451172	-25.156469345092773	-335.79949951171875	-0.0	-0.0	-0.0	-0.0	-0.0	-0.0	101848.484375	685.2194213867188	-3370.473876953125
0.1905	-0.0	-0.0	-0.0	3.4943830966949463	24.139179229736328	-393.1757507324219	-2.468666076660156	-25.08335876464844	-336.46221923828125	-0.0	-0.0	-0.0	-0.0	-0.0	-0.0	102054.390625	831.5288696289062	-3260.981689453125
0.191	-0.0	-0.0	-0.0	3.605477809906006	24.48755645751953	-392.9099731445313	-2.6180882453918457	-25.08335876464844	-338.3875732421875	-0.0	-0.0	-0.0	-0.0	-0.0	-0.0	102315.1015625	735.7118530273438	-3515.818603515625
0.1915	-0.0	-0.0	-0.0	3.627595186233521	24.361711502075195	-395.1209411621094	-3.031247854232788	-24.83340835571289	-337.07623291015625	-0.0	-0.0	-0.0	-0.0	-0.0	-0.0	102079.796875	872.8989868164062	-3491.466552734375
0.192	-0.0	-0.0	-0.0	3.494175910949707	24.644847869873047	-395.7369689941406	-2.86055588722229	-25.061643600463867	-337.1354675292969	-0.0	-0.0	-0.0	-0.0	-0.0	-0.0	102087.4453125	916.3834838867188	-3461.747802734375
0.1925	-0.0	-0.0	-0.0	3.523874998092652	24.32522201538086	-392.1476135253906	-3.0231409072875977	-25.009923934936523	-337.7747802734375	-0.0	-0.0	-0.0	-0.0	-0.0	-0.0	102101.2734375	965.7278442382812	-3563.523193359375
0.193	-0.0	-0.0	-0.0	3.382420778274536	24.48849105834961	-393.38385009765625	-2.705408811569214	-24.980226516723636	-335.88385009765625	-0.0	-0.0	-0.0	-0.0	-0.0	-0.0	102307.4140625	1012.0802001953124	-3491.306884765625
0.1935	-0.0	-0.0	-0.0	3.657630920410156	24.310136795043945	-391.4123840332031	-3.1418261528015137	-24.972999572753903	-337.2221984863281	-0.0	-0.0	-0.0	-0.0	-0.0	-0.0	102049.296875	992.9677734375	-3513.8876953125
0.194	-0.0	-0.0	-0.0	3.255624294281006	24.399168014526367	-392.8523254394531	-3.334028005599976	-25.26000213623047	-337.7171325683594	-0.0	-0.0	-0.0	-0.0	-0.0	-0.0	102230.5546875	890.3502197265625	-3523.93798828125
0.1945	-0.0	-0.0	-0.0	3.634932041168213	24.481678009033203	-393.3908996582031	-3.038516998291016	-25.237749099731445	-336.9890441894531	-0.0	-0.0	-0.0	-0.0	-0.0	-0.0	102289.5390625	1017.8137817382812	-3555.876708984375
0.195	-0.0	-0.0	-0.0	3.234393835067749	24.548168182373047	-391.5287170410156	-3.821282863616944	-25.194047927856445	-336.3788757324219	-0.0	-0.0	-0.0	-0.0	-0.0	-0.0	102242.4921875	1028.0146484375	-3605.978271484375
0.1955	-0.0	-0.0	-0.0	3.1078922748565674	24.674657821655277	-394.2967529296875	-3.622600078582764	-24.980558395385746	-337.4836730957031	-0.0	-0.0	-0.0	-0.0	-0.0	-0.0	102259.0703125	942.0423583984376	-3612.8583984375
0.196	-0.0	-0.0	-0.0	3.3669910430908203	24.30961227416992	-393.6475524902344	-3.917739391326904	-25.068958282470703	-337.5404357910156	-0.0	-0.0	-0.0	-0.0	-0.0	-0.0	102187.2578125	1124.5462646484375	-3635.743408203125
0.1965	-0.0	-0.0	-0.0	3.2545390129089355	24.732044219970703	-392.3829345703125	-3.763014554977417	-25.023685455322266	-337.77587890625	-0.0	-0.0	-0.0	-0.0	-0.0	-0.0	102244.78125	1166.9398193359375	-3667.331298828125
0.197	-0.0	-0.0	-0.0	3.464941024780273	24.29516220092773	-392.84906005859375	-3.797534942626953	-25.20290756225586	-337.3369140625	-0.0	-0.0	-0.0	-0.0	-0.0	-0.0	102254.34375	1223.05810546875	-3601.29833984375
0.1975	-0.0	-0.0	-0.0	3.22070574760437	24.459205627441406	-394.29730224609375	-3.7258529663085938	-25.18587684631348	-339.08233642578125	-0.0	-0.0	-0.0	-0.0	-0.0	-0.0	102546.359375	1214.423583984375	-3645.276123046875
0.198	-0.0	-0.0	-0.0	3.389999389648437	24.332599639892575	-393.0523681640625	-3.562613248825073	-25.171680450439453	-339.39617919921875	-0.0	-0.0	-0.0	-0.0	-0.0	-0.0	102573.4921875	970.045166015625	-3565.6357421875
0.1985	-0.0	-0.0	-0.0	3.511995315551758	24.144920349121094	-393.44244384765625	-2.8246054649353027	-24.97199249267578	-340.255859375	-0.0	-0.0	-0.0	-0.0	-0.0	-0.0	102743.890625	1044.7806396484375	-3577.492919921875
0.199	-0.0	-0.0	-0.0	3.10837459564209	23.79344940185547	-392.79150390625	-3.193588256835937	-25.61328887939453	-341.47027587890625	-0.0	-0.0	-0.0	-0.0	-0.0	-0.0	103155.3046875	831.675537109375	-3381.072998046875
0.1995	-0.0	-0.0	-0.0	3.1698315143585205	24.079111099243164	-390.208740234375	-2.787397146224976	-25.42272186279297	-341.8194580078125	-0.0	-0.0	-0.0	-0.0	-0.0	-0.0	103822.609375	878.7763061523438	-3471.315185546875
0.2	-0.0	-0.0	-0.0	2.953890323638916	23.64334297180176	-389.6517333984375	-2.572612762451172	-25.273876190185547	-343.216064453125	-0.0	-0.0	-0.0	-0.0	-0.0	-0.0	103752.71875	893.9530639648438	-3380.63037109375
0.2005	-0.0	-0.0	-0.0	3.3486385345458984	23.492748260498047	-390.7117309570313	-2.531040906906128	-25.4642391204834	-344.4653625488281	-0.0	-0.0	-0.0	-0.0	-0.0	-0.0	104545.9375	835.577392578125	-3211.984130859375
